<svg width="264" height="332" viewBox="0 0 264 332" fill="none" xmlns="http://www.w3.org/2000/svg">
<g style="mix-blend-mode:overlay">
<circle cx="166" cy="166" r="166" fill="white" fill-opacity="0.5"/>
<circle cx="166" cy="166" r="165.5" stroke="black" stroke-opacity="0.5"/>
<path d="M271.537 208.911C271.537 208.911 265.046 221.368 252.875 220.479C240.691 219.591 227.709 191.111 203.347 182.208C178.992 173.305 165.997 187.545 165.997 187.545C165.997 187.545 153.009 173.305 128.66 182.208C104.305 191.111 91.3169 219.591 79.1391 220.479C66.9614 221.368 60.4641 208.911 60.4641 208.911C60.4641 208.911 56.405 219.591 67.7785 234.719C79.1391 249.847 110.796 256.208 131.098 249.847C153.82 242.727 165.997 224.934 165.997 224.934C165.997 224.934 177.365 243.622 200.909 249.847C221.432 255.281 252.875 249.847 264.236 234.719C275.596 219.591 271.537 208.911 271.537 208.911Z" fill="black" fill-opacity="0.5"/>
<path d="M273.638 119.025H265.15C262.854 112.119 259.009 105.914 253.99 100.908C245.651 92.556 234.044 87.3685 221.309 87.3685C200.792 87.3752 183.433 100.739 177.39 119.226C174.219 118.293 170.873 117.774 167.398 117.774C163.929 117.774 160.576 118.293 157.405 119.226C151.362 100.739 134.003 87.3752 113.487 87.3685C100.751 87.3685 89.1445 92.556 80.8055 100.908C75.7865 105.914 71.9415 112.12 69.6457 119.025H61.1577V132.377H67.3242C67.3113 132.785 67.2657 133.187 67.2657 133.596C67.2657 159.125 87.9572 179.816 113.486 179.823C139.022 179.816 159.707 159.125 159.714 133.596C159.714 133.252 159.668 132.921 159.668 132.584C162.055 131.67 164.642 131.125 167.398 131.125C170.154 131.125 172.741 131.67 175.127 132.584C175.127 132.921 175.082 133.252 175.082 133.596C175.088 159.125 195.773 179.816 221.309 179.823C234.045 179.823 245.651 174.629 253.99 166.284C262.349 157.945 267.536 146.331 267.53 133.596C267.53 133.187 267.485 132.785 267.471 132.377H273.638V119.025ZM134.379 154.482C129.004 159.838 121.67 163.132 113.487 163.132C105.303 163.132 97.9761 159.838 92.6006 154.482C87.2442 149.106 83.957 141.779 83.9503 133.595C83.957 125.412 87.2446 118.078 92.6006 112.709C97.9761 107.347 105.303 104.059 113.487 104.059C121.67 104.059 129.004 107.347 134.379 112.709C139.735 118.079 143.023 125.406 143.03 133.595C143.023 141.779 139.735 149.106 134.379 154.482ZM242.195 154.482C236.819 159.838 229.492 163.132 221.309 163.132C213.125 163.132 205.791 159.838 200.416 154.482C195.06 149.106 191.772 141.779 191.766 133.595C191.772 125.412 195.06 118.078 200.416 112.709C205.791 107.347 213.125 104.059 221.309 104.059C229.492 104.059 236.819 107.347 242.195 112.709C247.551 118.079 250.838 125.412 250.845 133.595C250.839 141.779 247.551 149.106 242.195 154.482Z" fill="black" fill-opacity="0.5"/>
</g>
</svg>
