<svg width="24" height="24" viewBox="0 0 24 24" fill="none" xmlns="http://www.w3.org/2000/svg">
<path d="M12.001 2C6.47601 2 2.00101 6.475 2.00101 12C1.9998 14.0992 2.65961 16.1454 3.88682 17.8484C5.11403 19.5515 6.84634 20.8249 8.83801 21.488C9.33801 21.575 9.52601 21.275 9.52601 21.012C9.52601 20.775 9.51301 19.988 9.51301 19.15C7.00101 19.613 6.35101 18.538 6.15101 17.975C6.03801 17.687 5.55101 16.8 5.12601 16.562C4.77601 16.375 4.27601 15.912 5.11301 15.9C5.90101 15.887 6.46301 16.625 6.65101 16.925C7.55101 18.437 8.98801 18.012 9.56301 17.75C9.65101 17.1 9.91301 16.663 10.201 16.413C7.97601 16.163 5.65101 15.3 5.65101 11.475C5.65101 10.387 6.03801 9.488 6.67601 8.787C6.57601 8.537 6.22601 7.512 6.77601 6.137C6.77601 6.137 7.61301 5.875 9.52601 7.163C10.3401 6.93706 11.1812 6.82334 12.026 6.825C12.876 6.825 13.726 6.937 14.526 7.162C16.439 5.862 17.276 6.138 17.276 6.138C17.826 7.513 17.476 8.538 17.376 8.788C18.013 9.488 18.401 10.375 18.401 11.475C18.401 15.313 16.064 16.163 13.838 16.413C14.201 16.725 14.514 17.325 14.514 18.263C14.514 19.6 14.501 20.675 14.501 21.013C14.501 21.275 14.689 21.587 15.189 21.487C17.1739 20.8166 18.8985 19.5408 20.1203 17.8389C21.3421 16.1371 21.9995 14.095 22 12C22 6.475 17.525 2 12 2H12.001Z" fill="black"/>
</svg>
